<?xml version="1.0" encoding="UTF-8" standalone="no"?>
<!-- Created with Inkscape (http://www.inkscape.org/) -->

<svg
   xmlns:dc="http://purl.org/dc/elements/1.1/"
   xmlns:cc="http://creativecommons.org/ns#"
   xmlns:rdf="http://www.w3.org/1999/02/22-rdf-syntax-ns#"
   xmlns:svg="http://www.w3.org/2000/svg"
   xmlns="http://www.w3.org/2000/svg"
   xmlns:sodipodi="http://sodipodi.sourceforge.net/DTD/sodipodi-0.dtd"
   xmlns:inkscape="http://www.inkscape.org/namespaces/inkscape"
   version="1.1"
   id="svg21454"
   xml:space="preserve"
   width="800"
   height="800"
   viewBox="0 0 800 800"
   sodipodi:docname="say-no-to-racism-publicdomainvectors.org.svg"
   inkscape:version="0.92.4 (5da689c313, 2019-01-14)"><metadata
     id="metadata21460"><rdf:RDF><cc:Work
         rdf:about=""><dc:format>image/svg+xml</dc:format><dc:type
           rdf:resource="http://purl.org/dc/dcmitype/StillImage" /><dc:title></dc:title></cc:Work></rdf:RDF></metadata><defs
     id="defs21458"><clipPath
       clipPathUnits="userSpaceOnUse"
       id="clipPath21470"><path
         d="M 0,600 H 600 V 0 H 0 Z"
         id="path21468"
         inkscape:connector-curvature="0" /></clipPath><clipPath
       clipPathUnits="userSpaceOnUse"
       id="clipPath21538"><path
         d="M 193.482,406.937 H 350.734 V 256.391 H 193.482 Z"
         id="path21536"
         inkscape:connector-curvature="0" /></clipPath></defs><sodipodi:namedview
     pagecolor="#ffffff"
     bordercolor="#666666"
     borderopacity="1"
     objecttolerance="10"
     gridtolerance="10"
     guidetolerance="10"
     inkscape:pageopacity="0"
     inkscape:pageshadow="2"
     inkscape:window-width="1920"
     inkscape:window-height="1018"
     id="namedview21456"
     showgrid="false"
     inkscape:zoom="0.90416968"
     inkscape:cx="513.55932"
     inkscape:cy="388.13559"
     inkscape:window-x="-8"
     inkscape:window-y="-8"
     inkscape:window-maximized="1"
     inkscape:current-layer="g21462" /><g
     id="g21462"
     inkscape:groupmode="layer"
     inkscape:label="say-no-to-racism-publicdomainvectors.org"
     transform="matrix(1.3333333,0,0,-1.3333333,0,800)"><g
       id="g21464"><g
         id="g21466"
         clip-path="url(#clipPath21470)"><path
           d="M 205.616,566.431 C 176.612,554.166 150.584,536.621 128.252,514.287 105.916,491.954 88.374,465.924 76.106,436.922 63.389,406.854 56.94,374.962 56.94,342.129 c 0,-32.833 6.449,-64.725 19.166,-94.795 12.268,-29 29.81,-55.029 52.146,-77.361 22.332,-22.336 48.36,-39.877 77.364,-52.145 30.067,-12.719 61.96,-19.166 94.793,-19.166 32.831,0 64.725,6.447 94.794,19.164 29.002,12.27 55.029,29.811 77.365,52.147 22.331,22.332 39.874,48.361 52.142,77.361 12.718,30.07 19.164,61.962 19.164,94.795 0,32.833 -6.446,64.725 -19.164,94.793 -12.268,29.002 -29.811,55.032 -52.142,77.365 -22.336,22.334 -48.363,39.879 -77.365,52.144 -30.069,12.717 -61.963,19.166 -94.794,19.166 -32.833,0 -64.726,-6.449 -94.793,-19.166"
           style="fill:#231f20;fill-opacity:1;fill-rule:nonzero;stroke:none"
           id="path21472"
           inkscape:connector-curvature="0" /><path
           d="m 462.182,342.129 c 0,-89.346 -72.428,-161.772 -161.773,-161.772 -89.346,0 -161.772,72.426 -161.772,161.772 0,89.344 72.426,161.772 161.772,161.772 89.345,0 161.773,-72.429 161.773,-161.772"
           style="fill:#ffffff;fill-opacity:1;fill-rule:nonzero;stroke:none"
           id="path21474"
           inkscape:connector-curvature="0" /><path
           d="m 121.987,394.833 2.826,-0.867 c -0.415,-1.354 -1.261,-2.73 -2.535,-4.128 -0.468,-0.526 -0.778,-0.891 -0.931,-1.095 -0.153,-0.206 -0.262,-0.417 -0.328,-0.632 -0.101,-0.33 -0.124,-0.595 -0.066,-0.793 0.056,-0.198 0.246,-0.545 0.566,-1.04 0.274,-0.411 0.356,-0.788 0.252,-1.135 -0.283,-0.925 -1.142,-1.169 -2.575,-0.729 l -9.02,2.768 c -0.463,0.141 -0.811,0.393 -1.051,0.756 -0.239,0.363 -0.307,0.745 -0.202,1.147 0.095,0.368 0.287,0.62 0.572,0.76 0.287,0.136 0.733,0.194 1.339,0.169 1.538,-0.054 3.035,0.087 4.494,0.425 1.458,0.339 2.764,0.854 3.916,1.55 1.191,0.7 2.105,1.648 2.743,2.844 m -28.484,12.316 -2.722,0.835 c 0.369,0.969 0.76,1.789 1.172,2.456 0.413,0.668 1.103,1.585 2.07,2.751 0.234,0.289 0.383,0.541 0.449,0.755 0.097,0.314 0.059,0.578 -0.11,0.792 l -0.551,0.764 c -0.281,0.376 -0.365,0.754 -0.248,1.134 0.137,0.445 0.396,0.72 0.785,0.827 0.386,0.108 0.926,0.055 1.622,-0.158 l 8.168,-2.507 c 0.481,-0.147 0.834,-0.404 1.057,-0.77 0.223,-0.366 0.27,-0.765 0.138,-1.194 -0.101,-0.33 -0.301,-0.601 -0.603,-0.816 -0.177,-0.109 -0.375,-0.18 -0.594,-0.21 -0.217,-0.033 -0.561,-0.023 -1.032,0.032 -0.867,0.067 -1.796,0.009 -2.791,-0.173 -0.997,-0.182 -1.923,-0.466 -2.782,-0.852 -1.703,-0.778 -3.045,-2 -4.028,-3.666 m -3.444,-1.075 2.848,-0.873 c -0.033,-1.109 0.161,-2.02 0.584,-2.735 0.423,-0.715 1.063,-1.204 1.922,-1.468 0.826,-0.254 1.618,-0.252 2.374,0.003 0.755,0.256 1.568,0.801 2.44,1.637 0.592,0.576 1.799,1.922 3.624,4.037 1.101,1.289 2.036,2.261 2.808,2.92 0.77,0.657 1.655,1.231 2.654,1.719 2.646,1.319 5.383,1.547 8.208,0.681 2.129,-0.655 3.917,-1.781 5.36,-3.38 1.443,-1.6 2.384,-3.481 2.826,-5.641 0.223,-1.154 0.308,-2.369 0.25,-3.643 -0.056,-1.275 -0.242,-2.424 -0.556,-3.45 l -2.828,0.868 c 0.095,1.543 -0.07,2.727 -0.495,3.553 -0.425,0.825 -1.164,1.401 -2.221,1.726 -1.107,0.338 -2.233,0.142 -3.381,-0.591 -0.747,-0.493 -1.809,-1.54 -3.185,-3.142 -1.515,-1.756 -2.579,-2.954 -3.189,-3.587 -0.611,-0.635 -1.278,-1.221 -2.003,-1.757 -3.166,-2.425 -6.591,-3.074 -10.273,-1.944 -1.883,0.577 -3.503,1.498 -4.859,2.764 -1.356,1.266 -2.308,2.741 -2.857,4.428 -0.762,2.346 -0.778,4.972 -0.051,7.875"
           style="fill:#ffffff;fill-opacity:1;fill-rule:nonzero;stroke:none"
           id="path21476"
           inkscape:connector-curvature="0" /><path
           d="m 109.614,436.108 5.361,-1.323 12.701,-11.844 c 0.366,-0.348 0.731,-0.618 1.098,-0.811 0.966,-0.507 1.891,-0.419 2.777,0.265 l 0.788,0.606 c 0.494,0.385 1.01,0.434 1.544,0.154 0.766,-0.403 0.852,-1.164 0.264,-2.285 l -3.065,-5.829 c -0.297,-0.567 -0.65,-0.953 -1.061,-1.157 -0.409,-0.204 -0.822,-0.198 -1.234,0.02 -0.444,0.233 -0.634,0.763 -0.57,1.589 0.054,0.771 0.05,1.366 -0.017,1.781 -0.066,0.415 -0.216,0.859 -0.454,1.336 -0.402,0.759 -1.05,1.549 -1.946,2.371 z m -4.978,4.64 4.861,9.248 30.304,-7.79 c 0.539,-0.127 1.032,-0.21 1.478,-0.25 0.364,-0.015 0.762,0.166 1.195,0.544 0.376,0.309 0.69,0.496 0.94,0.559 0.247,0.066 0.516,0.022 0.809,-0.132 0.792,-0.417 0.877,-1.222 0.252,-2.415 l -6.02,-11.451 c -0.243,-0.461 -0.549,-0.772 -0.916,-0.933 -0.368,-0.16 -0.735,-0.143 -1.102,0.05 -0.308,0.16 -0.504,0.343 -0.593,0.547 -0.089,0.203 -0.134,0.582 -0.136,1.134 0.008,0.389 -0.048,0.693 -0.167,0.912 -0.118,0.222 -0.314,0.403 -0.591,0.549 -0.26,0.137 -0.503,0.234 -0.726,0.293 l -3.718,1.012 -3.367,-6.403 -2.415,2.061 2.702,5.141 -20.85,5.572 z"
           style="fill:#ffffff;fill-opacity:1;fill-rule:nonzero;stroke:none"
           id="path21478"
           inkscape:connector-curvature="0" /><path
           d="m 146.464,473.901 -3.556,0.988 -3.047,5.926 c -0.264,0.498 -0.745,1.028 -1.447,1.59 -0.78,0.625 -1.688,0.637 -2.721,0.038 -0.569,-0.324 -0.98,-0.5 -1.236,-0.53 -0.256,-0.031 -0.531,0.074 -0.828,0.311 -0.363,0.291 -0.543,0.635 -0.534,1.031 0.01,0.26 0.076,0.508 0.197,0.745 0.123,0.236 0.387,0.605 0.789,1.109 l 4.002,4.999 c 0.752,0.939 1.507,1.109 2.261,0.505 0.27,-0.216 0.427,-0.446 0.473,-0.695 0.045,-0.245 0.004,-0.616 -0.126,-1.109 -0.233,-0.897 -0.314,-1.607 -0.244,-2.127 0.108,-0.751 0.328,-1.481 0.667,-2.193 l 0.657,-1.289 z m 1.29,-2.333 8.825,-7.065 c 0.526,-0.421 0.984,-0.622 1.377,-0.603 0.22,0 0.386,0.032 0.495,0.1 0.11,0.068 0.444,0.31 0.999,0.729 0.667,0.528 1.299,0.556 1.891,0.081 0.392,-0.314 0.543,-0.733 0.454,-1.26 -0.039,-0.323 -0.306,-0.796 -0.803,-1.418 l -0.551,-0.687 -7.223,-9.025 -0.532,-0.664 c -0.483,-0.604 -0.904,-0.962 -1.259,-1.074 -0.496,-0.176 -0.917,-0.123 -1.268,0.157 -0.595,0.475 -0.708,1.094 -0.341,1.858 0.284,0.632 0.449,1.008 0.49,1.13 0.041,0.119 0.031,0.281 -0.029,0.483 -0.068,0.386 -0.365,0.788 -0.892,1.21 l -6.841,5.478 -18.239,5.189 c -0.683,0.193 -1.298,0.188 -1.841,-0.02 -0.52,-0.183 -0.89,-0.27 -1.104,-0.263 -0.217,0.006 -0.446,0.106 -0.688,0.302 -0.701,0.558 -0.639,1.355 0.186,2.387 l 7.939,9.915 c 0.417,0.522 0.766,0.833 1.047,0.937 0.483,0.161 0.9,0.102 1.25,-0.179 0.432,-0.346 0.615,-0.806 0.551,-1.384 l -0.096,-0.865 c -0.031,-0.345 0.101,-0.634 0.398,-0.871 0.337,-0.271 0.726,-0.46 1.168,-0.571 z"
           style="fill:#ffffff;fill-opacity:1;fill-rule:nonzero;stroke:none"
           id="path21480"
           inkscape:connector-curvature="0" /><path
           d="m 194.744,511.913 -4.956,2.152 -4.195,5.833 c -0.846,1.177 -1.664,1.954 -2.456,2.331 -0.791,0.378 -1.782,0.479 -2.971,0.305 -0.394,-0.072 -0.706,-0.066 -0.933,0.015 -0.227,0.081 -0.431,0.247 -0.613,0.5 -0.272,0.377 -0.349,0.742 -0.231,1.093 0.118,0.35 0.448,0.721 0.991,1.111 l 5.276,3.795 c 0.714,0.513 1.263,0.738 1.649,0.674 0.399,-0.053 0.71,-0.233 0.931,-0.54 0.213,-0.296 0.304,-0.564 0.277,-0.807 -0.027,-0.243 -0.202,-0.671 -0.525,-1.287 -0.47,-0.913 -0.613,-1.898 -0.427,-2.954 0.147,-0.766 0.574,-1.64 1.278,-2.621 z m -26.267,-5.696 4.908,-2.091 8.117,-11.288 c 0.708,-0.983 1.453,-1.671 2.237,-2.067 0.782,-0.395 1.678,-0.539 2.686,-0.432 l 0.888,0.096 c 0.516,0.051 0.924,-0.135 1.228,-0.556 0.231,-0.322 0.291,-0.685 0.175,-1.086 -0.093,-0.344 -0.489,-0.767 -1.187,-1.27 l -4.878,-3.506 c -1.283,-0.925 -2.188,-1.02 -2.714,-0.291 -0.182,0.254 -0.258,0.502 -0.231,0.745 0.029,0.243 0.177,0.654 0.446,1.231 0.817,1.715 0.518,3.556 -0.896,5.521 z m 3.511,13.721 25.179,-11.396 6.678,-9.287 -5.745,-4.13 -32.007,14.348 c -0.692,0.311 -1.212,0.501 -1.559,0.57 -0.348,0.069 -0.712,0.042 -1.092,-0.081 l -1.013,-0.281 c -0.261,-0.082 -0.518,-0.077 -0.777,0.014 -0.257,0.094 -0.466,0.25 -0.627,0.475 -0.173,0.239 -0.268,0.506 -0.289,0.8 -0.019,0.294 0.048,0.56 0.198,0.796 0.17,0.27 0.78,0.784 1.835,1.544 z"
           style="fill:#ffffff;fill-opacity:1;fill-rule:nonzero;stroke:none"
           id="path21482"
           inkscape:connector-curvature="0" /><path
           d="m 213.852,541.523 -1.136,2.562 c 1.744,0.677 3.46,1.021 5.148,1.032 1.689,0.01 3.404,-0.307 5.149,-0.954 4.619,-1.716 8.168,-5.373 10.647,-10.968 2.429,-5.486 2.782,-10.445 1.056,-14.877 -1.323,-3.423 -3.686,-6.048 -7.096,-7.88 l -1.154,2.609 c 0.371,0.277 0.64,0.544 0.803,0.795 0.165,0.252 0.281,0.564 0.347,0.933 0.142,0.839 -0.077,1.914 -0.659,3.225 l -9.39,21.197 c -0.371,0.838 -0.807,1.439 -1.311,1.802 -0.338,0.248 -0.681,0.409 -1.027,0.481 -0.347,0.074 -0.808,0.089 -1.377,0.043 m -1.949,-0.863 c -0.683,-0.642 -1.082,-1.283 -1.197,-1.92 -0.116,-0.638 0.035,-1.432 0.454,-2.38 l 9.39,-21.197 c 0.617,-1.392 1.241,-2.287 1.874,-2.687 0.51,-0.341 1.208,-0.438 2.093,-0.293 l 1.154,-2.607 c -3.633,-1.271 -7.158,-1.253 -10.572,0.052 -4.441,1.703 -7.875,5.296 -10.305,10.781 -1.218,2.751 -1.911,5.416 -2.083,7.998 -0.169,2.581 0.201,5 1.111,7.256 0.691,1.726 1.604,3.208 2.739,4.446 1.133,1.241 2.535,2.277 4.207,3.113 z"
           style="fill:#ffffff;fill-opacity:1;fill-rule:nonzero;stroke:none"
           id="path21484"
           inkscape:connector-curvature="0" /><path
           d="m 282.859,561.523 1.565,-10.494 c 0.075,-0.493 -0.006,-0.915 -0.243,-1.263 -0.236,-0.349 -0.577,-0.556 -1.02,-0.622 -0.428,-0.064 -0.803,0.024 -1.127,0.264 -0.325,0.24 -0.564,0.601 -0.725,1.084 l -0.489,1.526 c -0.493,1.55 -1.193,2.85 -2.101,3.903 -0.568,0.649 -1.278,1.145 -2.133,1.49 l -0.464,3.107 z m -8.851,-1.321 4.496,-30.137 c 0.099,-0.667 0.299,-1.126 0.597,-1.379 0.163,-0.151 0.305,-0.238 0.433,-0.263 0.124,-0.025 0.532,-0.073 1.222,-0.145 0.847,-0.066 1.325,-0.475 1.439,-1.227 0.066,-0.445 -0.101,-0.836 -0.504,-1.176 -0.295,-0.253 -0.823,-0.437 -1.591,-0.551 l -0.843,-0.126 -11.447,-1.707 -0.851,-0.129 c -0.755,-0.111 -1.344,-0.082 -1.765,0.091 -0.421,0.173 -0.667,0.49 -0.735,0.952 -0.113,0.752 0.229,1.284 1.026,1.595 0.646,0.271 1.024,0.436 1.14,0.498 0.113,0.06 0.218,0.185 0.313,0.374 0.213,0.329 0.271,0.826 0.172,1.493 l -4.496,30.138 z m -20.212,-3.015 6.737,1.004 0.465,-3.106 c -0.735,-0.581 -1.272,-1.263 -1.608,-2.048 -0.562,-1.271 -0.851,-2.721 -0.869,-4.347 l -0.025,-1.602 c -0.011,-0.507 -0.136,-0.924 -0.376,-1.249 -0.239,-0.324 -0.574,-0.517 -0.999,-0.581 -0.446,-0.066 -0.829,0.034 -1.158,0.298 -0.328,0.264 -0.528,0.643 -0.603,1.137 z"
           style="fill:#ffffff;fill-opacity:1;fill-rule:nonzero;stroke:none"
           id="path21486"
           inkscape:connector-curvature="0" /><path
           d="m 311.568,559.393 0.122,2.793 c 1.864,-0.167 3.555,-0.622 5.074,-1.363 1.517,-0.74 2.915,-1.786 4.188,-3.138 3.377,-3.589 4.934,-8.437 4.667,-14.548 -0.26,-5.99 -2.15,-10.585 -5.666,-13.786 -2.706,-2.476 -5.994,-3.777 -9.862,-3.903 l 0.123,2.85 c 0.457,0.083 0.813,0.202 1.071,0.355 0.259,0.154 0.498,0.382 0.721,0.683 0.498,0.687 0.778,1.747 0.84,3.181 l 1.009,23.148 c 0.04,0.915 -0.084,1.645 -0.374,2.193 -0.191,0.371 -0.426,0.666 -0.703,0.886 -0.277,0.219 -0.679,0.435 -1.21,0.649 m -2.113,0.092 c -0.894,-0.273 -1.536,-0.668 -1.922,-1.186 -0.387,-0.519 -0.6,-1.297 -0.646,-2.331 l -1.01,-23.147 c -0.065,-1.52 0.096,-2.599 0.483,-3.239 0.306,-0.533 0.886,-0.93 1.741,-1.191 l -0.124,-2.851 c -3.823,0.479 -6.975,2.059 -9.455,4.744 -3.224,3.494 -4.704,8.238 -4.444,14.226 0.13,3.004 0.694,5.699 1.689,8.086 0.997,2.386 2.403,4.386 4.223,6.002 1.388,1.236 2.864,2.157 4.43,2.764 1.569,0.605 3.286,0.911 5.156,0.917 z"
           style="fill:#ffffff;fill-opacity:1;fill-rule:nonzero;stroke:none"
           id="path21488"
           inkscape:connector-curvature="0" /><path
           d="m 371.395,531.148 c 1.428,-0.743 2.501,-1.393 3.216,-1.946 0.716,-0.555 1.321,-1.181 1.812,-1.879 0.516,-0.742 0.839,-1.529 0.967,-2.359 0.128,-0.83 0.057,-1.636 -0.211,-2.422 l -1.735,-5.083 c -0.176,-0.519 -0.092,-0.838 0.252,-0.956 0.131,-0.043 0.252,-0.045 0.368,-0.004 0.116,0.043 0.289,0.141 0.524,0.293 0.597,0.409 1.106,0.541 1.534,0.396 0.278,-0.094 0.506,-0.336 0.684,-0.726 0.176,-0.388 0.218,-0.729 0.117,-1.024 -0.173,-0.506 -0.625,-1.04 -1.357,-1.602 -0.73,-0.562 -1.551,-1.006 -2.468,-1.332 -0.855,-0.31 -1.715,-0.449 -2.582,-0.418 -0.868,0.031 -1.831,0.228 -2.896,0.59 -2.162,0.737 -3.638,1.93 -4.426,3.579 -0.793,1.65 -0.809,3.579 -0.055,5.788 l 1.405,4.124 c 0.313,0.917 0.487,1.453 0.52,1.605 0.143,0.683 0.106,1.327 -0.107,1.93 -0.276,0.733 -0.84,1.3 -1.688,1.698 l 0.895,2.628 c 0.927,-0.169 1.633,-0.154 2.12,0.046 0.428,0.183 0.766,0.441 1.016,0.777 0.252,0.334 0.502,0.87 0.753,1.607 l 2.209,6.479 c 0.353,1.03 0.415,1.868 0.185,2.512 -0.226,0.644 -0.815,1.293 -1.76,1.945 l 0.929,2.724 0.638,-0.218 c 1.816,-0.62 3.34,-1.212 4.572,-1.777 1.837,-0.829 3.317,-2.028 4.444,-3.597 1.626,-2.251 1.96,-4.781 1.001,-7.591 -0.787,-2.305 -2.149,-3.947 -4.089,-4.927 -0.818,-0.415 -1.699,-0.68 -2.642,-0.796 -0.943,-0.116 -2.324,-0.138 -4.145,-0.064 m -1.697,19.623 -9.828,-28.823 c -0.219,-0.639 -0.251,-1.139 -0.1,-1.501 0.074,-0.208 0.161,-0.352 0.261,-0.433 0.102,-0.079 0.443,-0.309 1.023,-0.691 0.721,-0.447 0.962,-1.031 0.716,-1.752 -0.145,-0.425 -0.475,-0.696 -0.989,-0.814 -0.378,-0.09 -0.925,-0.012 -1.643,0.231 l -0.834,0.285 -10.949,3.733 -0.637,0.218 c -0.593,0.202 -1.01,0.467 -1.253,0.798 -0.246,0.33 -0.3,0.7 -0.159,1.109 0.229,0.671 0.708,1.001 1.436,0.99 0.603,-0.004 0.956,-10e-4 1.062,0.009 0.102,0.011 0.228,0.073 0.377,0.186 0.287,0.194 0.529,0.578 0.722,1.152 l 8.379,24.566 c 0.194,0.57 0.238,1.02 0.13,1.348 -0.05,0.181 -0.111,0.307 -0.187,0.379 -0.078,0.071 -0.356,0.288 -0.834,0.653 -0.585,0.436 -0.762,0.989 -0.536,1.657 0.141,0.407 0.408,0.667 0.801,0.779 0.397,0.11 0.89,0.065 1.483,-0.137 l 0.635,-0.217 z"
           style="fill:#ffffff;fill-opacity:1;fill-rule:nonzero;stroke:none"
           id="path21490"
           inkscape:connector-curvature="0" /><path
           d="m 409.938,532.862 8.974,-5.353 -9.406,-29.845 c -0.155,-0.531 -0.267,-1.02 -0.33,-1.464 -0.035,-0.361 0.126,-0.769 0.48,-1.222 0.287,-0.393 0.459,-0.715 0.508,-0.967 0.052,-0.252 -0.006,-0.519 -0.173,-0.802 -0.463,-0.77 -1.271,-0.811 -2.428,-0.122 l -11.113,6.628 c -0.45,0.268 -0.745,0.591 -0.887,0.966 -0.141,0.378 -0.106,0.743 0.107,1.1 0.178,0.298 0.369,0.485 0.578,0.562 0.206,0.077 0.584,0.103 1.135,0.078 0.384,-0.028 0.689,0.011 0.915,0.118 0.224,0.107 0.419,0.295 0.577,0.563 0.151,0.252 0.263,0.488 0.333,0.707 l 1.226,3.649 -6.213,3.705 2.175,2.283 4.99,-2.974 6.696,20.543 z m -4.905,-4.731 -1.61,-5.284 -12.516,-12.039 c -0.365,-0.345 -0.656,-0.696 -0.869,-1.052 -0.557,-0.935 -0.519,-1.861 0.11,-2.781 l 0.561,-0.817 c 0.354,-0.513 0.376,-1.03 0.066,-1.549 -0.443,-0.743 -1.201,-0.793 -2.276,-0.152 l -5.656,3.373 c -0.549,0.327 -0.914,0.701 -1.096,1.12 -0.184,0.422 -0.155,0.832 0.084,1.233 0.256,0.431 0.797,0.592 1.619,0.485 0.768,-0.096 1.358,-0.123 1.777,-0.081 0.419,0.042 0.871,0.169 1.36,0.382 0.778,0.361 1.602,0.966 2.474,1.816 z"
           style="fill:#ffffff;fill-opacity:1;fill-rule:nonzero;stroke:none"
           id="path21492"
           inkscape:connector-curvature="0" /><path
           d="m 447.33,502.574 2.081,2.343 c 0.54,-0.667 0.955,-1.234 1.244,-1.702 0.289,-0.467 0.783,-1.349 1.481,-2.645 0.449,-0.82 0.784,-1.328 1.005,-1.524 0.374,-0.333 0.809,-0.415 1.304,-0.247 l 0.671,0.247 c 0.436,0.178 0.865,0.077 1.29,-0.303 0.349,-0.31 0.525,-0.651 0.529,-1.025 0.002,-0.375 -0.173,-0.762 -0.533,-1.163 l -7.157,-8.055 c -0.464,-0.522 -0.916,-0.796 -1.357,-0.826 -0.441,-0.027 -0.81,0.09 -1.107,0.354 -0.311,0.276 -0.47,0.597 -0.479,0.964 -0.01,0.367 0.13,0.828 0.415,1.383 0.637,1.263 1.086,2.301 1.344,3.113 0.537,1.721 0.789,3.28 0.757,4.674 -0.02,0.942 -0.144,1.764 -0.376,2.466 -0.23,0.704 -0.6,1.351 -1.112,1.946 m -22.276,-25.199 2.103,2.366 c 1.077,-0.82 2.479,-1.382 4.2,-1.686 0.929,-0.154 1.906,-0.125 2.927,0.087 1.022,0.213 1.985,0.591 2.884,1.132 0.495,0.299 0.91,0.458 1.238,0.476 0.331,0.02 0.638,-0.096 0.923,-0.35 0.312,-0.277 0.467,-0.623 0.467,-1.04 0.002,-0.416 -0.155,-0.8 -0.465,-1.149 -0.516,-0.581 -1.366,-1.087 -2.547,-1.517 -1.18,-0.431 -2.431,-0.684 -3.751,-0.76 -1.614,-0.095 -3.053,0.052 -4.32,0.439 -1.268,0.385 -2.487,1.052 -3.659,2.002 m 22.856,28.911 -2.083,-2.342 c -0.869,0.564 -1.738,0.737 -2.606,0.517 -0.871,-0.221 -1.764,-0.847 -2.682,-1.878 l -14.23,-16.014 -0.742,-0.834 c -0.264,-0.298 -0.481,-0.665 -0.65,-1.105 -0.171,-0.439 -0.262,-0.862 -0.274,-1.267 -0.021,-0.445 0.037,-0.823 0.173,-1.142 0.136,-0.317 0.388,-0.675 0.755,-1.071 l -2.103,-2.365 c -2.508,2.229 -4.106,4.817 -4.793,7.765 -0.607,2.599 -0.46,5.238 0.444,7.919 0.9,2.681 2.534,5.354 4.902,8.017 1.736,1.952 3.621,3.534 5.658,4.745 2.036,1.21 4.116,1.982 6.24,2.317 2.149,0.334 4.283,0.243 6.401,-0.276 2.12,-0.518 3.846,-1.368 5.177,-2.551 z"
           style="fill:#ffffff;fill-opacity:1;fill-rule:nonzero;stroke:none"
           id="path21494"
           inkscape:connector-curvature="0" /><path
           d="m 446.47,455.271 -7.378,8.893 -0.43,0.518 c -0.4,0.483 -0.619,0.93 -0.656,1.34 -0.037,0.41 0.109,0.754 0.442,1.029 0.545,0.452 1.127,0.484 1.742,0.091 0.514,-0.319 0.818,-0.503 0.913,-0.55 0.092,-0.047 0.233,-0.058 0.418,-0.04 0.347,0.016 0.753,0.217 1.218,0.603 l 19.961,16.559 c 0.464,0.386 0.737,0.746 0.816,1.084 0.053,0.179 0.065,0.32 0.037,0.42 -0.028,0.102 -0.154,0.434 -0.372,0.996 -0.273,0.678 -0.136,1.244 0.409,1.696 0.33,0.275 0.695,0.355 1.092,0.244 0.396,-0.113 0.795,-0.411 1.195,-0.894 l 0.429,-0.518 7.378,-8.893 0.429,-0.517 c 0.401,-0.484 0.621,-0.931 0.658,-1.34 0.038,-0.411 -0.109,-0.754 -0.439,-1.029 -0.545,-0.452 -1.128,-0.481 -1.742,-0.089 -0.515,0.321 -0.818,0.504 -0.911,0.55 -0.095,0.046 -0.236,0.06 -0.421,0.041 -0.345,-0.016 -0.749,-0.216 -1.216,-0.601 l -19.96,-16.561 c -0.465,-0.386 -0.737,-0.747 -0.817,-1.086 -0.054,-0.177 -0.067,-0.318 -0.038,-0.42 0.029,-0.1 0.153,-0.431 0.372,-0.996 0.272,-0.678 0.135,-1.244 -0.41,-1.696 -0.334,-0.275 -0.697,-0.357 -1.093,-0.246 -0.397,0.114 -0.797,0.411 -1.198,0.894 z"
           style="fill:#ffffff;fill-opacity:1;fill-rule:nonzero;stroke:none"
           id="path21496"
           inkscape:connector-curvature="0" /><path
           d="m 487.664,453.448 2.438,1.474 c 0.477,-0.924 0.826,-1.764 1.048,-2.52 0.224,-0.755 0.445,-1.887 0.663,-3.393 0.06,-0.368 0.147,-0.647 0.264,-0.841 0.17,-0.281 0.395,-0.429 0.671,-0.444 l 0.954,-0.089 c 0.477,-0.035 0.818,-0.223 1.024,-0.564 0.242,-0.4 0.272,-0.78 0.094,-1.141 -0.178,-0.361 -0.582,-0.732 -1.209,-1.111 l -7.309,-4.422 c -0.434,-0.263 -0.861,-0.355 -1.286,-0.278 -0.425,0.078 -0.753,0.308 -0.987,0.693 -0.177,0.297 -0.248,0.629 -0.206,0.997 0.037,0.205 0.115,0.4 0.238,0.584 0.119,0.184 0.356,0.435 0.711,0.75 0.627,0.602 1.204,1.335 1.732,2.199 0.526,0.866 0.934,1.749 1.218,2.649 0.553,1.792 0.535,3.61 -0.058,5.457 m 1.488,3.291 -2.547,-1.541 c -0.805,0.761 -1.614,1.223 -2.427,1.384 -0.816,0.161 -1.609,0.009 -2.378,-0.457 -0.739,-0.447 -1.266,-1.038 -1.579,-1.772 -0.314,-0.735 -0.449,-1.704 -0.407,-2.909 0.036,-0.827 0.234,-2.623 0.594,-5.392 0.228,-1.677 0.328,-3.021 0.304,-4.035 -0.023,-1.014 -0.186,-2.055 -0.487,-3.125 -0.783,-2.852 -2.436,-5.045 -4.966,-6.574 -1.907,-1.155 -3.941,-1.738 -6.096,-1.751 -2.155,-0.01 -4.184,0.538 -6.088,1.647 -1.011,0.601 -1.971,1.346 -2.886,2.238 -0.912,0.891 -1.644,1.795 -2.2,2.712 l 2.532,1.53 c 1.087,-1.096 2.08,-1.761 2.978,-1.995 0.899,-0.233 1.822,-0.063 2.77,0.509 0.991,0.6 1.593,1.572 1.812,2.915 0.133,0.884 0.058,2.376 -0.217,4.466 -0.301,2.299 -0.484,3.889 -0.551,4.766 -0.066,0.879 -0.057,1.767 0.025,2.664 0.304,3.976 2.103,6.962 5.402,8.957 1.687,1.02 3.453,1.615 5.301,1.784 1.848,0.169 3.581,-0.103 5.206,-0.815 2.258,-0.995 4.228,-2.732 5.905,-5.206 m -29.652,-16.361 -2.53,-1.531 c -0.735,1.215 -1.196,2.77 -1.381,4.66 -0.078,0.702 -0.145,1.179 -0.194,1.431 -0.052,0.254 -0.136,0.477 -0.252,0.669 -0.179,0.296 -0.364,0.489 -0.549,0.58 -0.186,0.09 -0.57,0.182 -1.152,0.274 -0.487,0.071 -0.824,0.26 -1.011,0.572 -0.504,0.83 -0.122,1.627 1.143,2.391 l 8.081,4.889 c 0.415,0.252 0.84,0.348 1.274,0.285 0.433,-0.061 0.763,-0.265 0.995,-0.612 0.211,-0.317 0.272,-0.628 0.185,-0.935 -0.086,-0.306 -0.341,-0.677 -0.765,-1.116 -1.068,-1.112 -1.963,-2.326 -2.684,-3.643 -0.72,-1.317 -1.205,-2.638 -1.455,-3.963 -0.272,-1.358 -0.173,-2.675 0.295,-3.951"
           style="fill:#ffffff;fill-opacity:1;fill-rule:nonzero;stroke:none"
           id="path21498"
           inkscape:connector-curvature="0" /><path
           d="m 510.179,409.249 3.744,-10.9 0.226,-0.662 c 0.422,-1.231 0.209,-1.994 -0.643,-2.286 -0.671,-0.231 -1.227,-0.055 -1.664,0.528 -0.365,0.48 -0.586,0.758 -0.656,0.833 -0.075,0.077 -0.201,0.139 -0.38,0.187 -0.33,0.106 -0.783,0.061 -1.354,-0.135 l -24.556,-8.437 c -0.572,-0.196 -0.956,-0.437 -1.15,-0.724 -0.113,-0.149 -0.175,-0.277 -0.183,-0.38 -0.01,-0.106 -0.013,-0.458 -0.006,-1.062 0.012,-0.73 -0.317,-1.209 -0.988,-1.44 -0.849,-0.291 -1.488,0.178 -1.909,1.41 l -0.226,0.662 -3.755,10.924 -0.277,0.806 c -0.246,0.718 -0.322,1.298 -0.227,1.739 0.095,0.442 0.363,0.739 0.804,0.891 0.719,0.247 1.303,0.011 1.751,-0.709 0.382,-0.58 0.614,-0.918 0.694,-1.02 0.081,-0.099 0.213,-0.181 0.4,-0.244 0.378,-0.144 0.886,-0.105 1.524,0.113 z m -3.11,9.046 -12.112,-9.564 8.168,0.42 -8.146,-2.798 -20.953,-0.863 -0.446,1.3 24.969,19.219 c 0.836,0.653 1.356,1.215 1.56,1.688 0.138,0.286 0.167,0.707 0.087,1.264 -0.136,1.142 0.186,1.848 0.972,2.117 0.426,0.145 0.808,0.108 1.149,-0.113 0.341,-0.221 0.612,-0.619 0.808,-1.19 z m -14.564,5.633 -6.511,-5.152 -7.382,-2.536 c -0.751,-0.258 -1.281,-0.473 -1.589,-0.643 -0.305,-0.169 -0.623,-0.421 -0.947,-0.751 -0.6,-0.592 -0.978,-1.251 -1.13,-1.981 l -0.276,-1.111 c -0.163,-0.751 -0.473,-1.205 -0.929,-1.362 -0.834,-0.286 -1.464,0.186 -1.885,1.414 l -2.12,6.165 c -0.419,1.223 -0.22,1.974 0.597,2.254 0.263,0.091 0.481,0.107 0.656,0.048 0.176,-0.058 0.407,-0.212 0.693,-0.46 1.603,-1.475 3.616,-1.796 6.035,-0.964 z"
           style="fill:#ffffff;fill-opacity:1;fill-rule:nonzero;stroke:none"
           id="path21500"
           inkscape:connector-curvature="0" /><path
           d="m 120.557,287.588 2.741,0.81 c 0.227,-1.011 0.353,-1.912 0.376,-2.697 0.022,-0.785 -0.052,-1.933 -0.225,-3.441 -0.037,-0.371 -0.025,-0.664 0.041,-0.879 0.091,-0.317 0.27,-0.516 0.534,-0.6 l 0.894,-0.33 c 0.45,-0.152 0.731,-0.422 0.845,-0.803 0.132,-0.447 0.066,-0.822 -0.199,-1.125 -0.262,-0.302 -0.745,-0.556 -1.444,-0.765 l -8.226,-2.436 c -0.479,-0.142 -0.913,-0.123 -1.301,0.059 -0.388,0.182 -0.644,0.488 -0.772,0.92 -0.099,0.332 -0.082,0.668 0.052,1.013 0.088,0.19 0.214,0.356 0.377,0.506 0.166,0.147 0.459,0.328 0.884,0.543 0.76,0.424 1.505,0.987 2.236,1.69 0.73,0.703 1.347,1.453 1.853,2.25 0.991,1.592 1.437,3.351 1.334,5.285 z m 2.278,2.83 -2.867,-0.85 c -0.582,0.94 -1.248,1.588 -1.996,1.95 -0.747,0.361 -1.552,0.412 -2.413,0.158 -0.83,-0.248 -1.49,-0.686 -1.977,-1.317 -0.492,-0.629 -0.867,-1.533 -1.131,-2.711 -0.176,-0.806 -0.44,-2.593 -0.793,-5.363 -0.204,-1.681 -0.448,-3.008 -0.726,-3.982 -0.281,-0.973 -0.703,-1.94 -1.266,-2.899 -1.478,-2.562 -3.633,-4.261 -6.469,-5.103 -2.138,-0.633 -4.252,-0.68 -6.339,-0.147 -2.089,0.535 -3.914,1.58 -5.474,3.137 -0.826,0.836 -1.567,1.801 -2.226,2.897 -0.656,1.093 -1.137,2.154 -1.44,3.179 l 2.832,0.84 c 0.774,-1.332 1.566,-2.225 2.375,-2.678 0.812,-0.451 1.747,-0.519 2.808,-0.205 1.112,0.328 1.942,1.117 2.496,2.36 0.35,0.824 0.658,2.283 0.92,4.375 0.293,2.302 0.518,3.884 0.677,4.75 0.159,0.867 0.392,1.724 0.7,2.57 1.3,3.769 3.8,6.201 7.499,7.297 1.889,0.56 3.748,0.688 5.581,0.384 1.83,-0.306 3.441,-1.007 4.831,-2.107 1.934,-1.537 3.399,-3.715 4.398,-6.535 z m -32.851,-8.295 -2.834,-0.84 c -0.402,1.36 -0.461,2.973 -0.171,4.842 0.097,0.697 0.152,1.174 0.167,1.43 0.012,0.256 -0.013,0.49 -0.077,0.707 -0.096,0.33 -0.225,0.564 -0.381,0.695 -0.157,0.135 -0.506,0.32 -1.045,0.557 -0.454,0.189 -0.733,0.457 -0.836,0.806 -0.274,0.926 0.306,1.604 1.742,2.03 l 9.046,2.679 c 0.46,0.137 0.891,0.121 1.292,-0.05 0.4,-0.168 0.666,-0.45 0.801,-0.842 0.124,-0.36 0.105,-0.678 -0.056,-0.949 -0.163,-0.274 -0.504,-0.569 -1.022,-0.883 -1.311,-0.805 -2.481,-1.75 -3.509,-2.84 -1.028,-1.088 -1.829,-2.238 -2.407,-3.455 -0.603,-1.242 -0.842,-2.537 -0.71,-3.887 z"
           style="fill:none;stroke:#ffffff;stroke-width:1;stroke-linecap:butt;stroke-linejoin:miter;stroke-miterlimit:4;stroke-dasharray:none;stroke-opacity:1"
           id="path21502"
           inkscape:connector-curvature="0" /><path
           d="m 133.186,261.395 4.737,-9.313 -23.883,-20.234 c -0.417,-0.366 -0.77,-0.719 -1.061,-1.061 -0.223,-0.289 -0.303,-0.719 -0.246,-1.289 0.034,-0.486 0.005,-0.85 -0.086,-1.09 -0.091,-0.238 -0.283,-0.435 -0.576,-0.584 -0.801,-0.406 -1.505,-0.011 -2.114,1.184 l -5.866,11.533 c -0.237,0.463 -0.316,0.893 -0.236,1.285 0.083,0.395 0.306,0.684 0.677,0.871 0.306,0.157 0.57,0.213 0.785,0.168 0.219,-0.045 0.551,-0.226 1.001,-0.539 0.312,-0.228 0.588,-0.359 0.836,-0.388 0.248,-0.03 0.51,0.027 0.786,0.167 0.263,0.131 0.481,0.272 0.659,0.418 l 2.972,2.434 -3.279,6.447 3.059,0.772 2.633,-5.176 16.648,13.82 z m -6.672,-1.387 -4.182,-3.613 -17.015,-3.508 c -0.493,-0.098 -0.925,-0.241 -1.295,-0.428 -0.972,-0.494 -1.434,-1.303 -1.387,-2.426 l 0.044,-0.996 c 0.027,-0.629 -0.229,-1.078 -0.768,-1.353 -0.772,-0.391 -1.443,-0.022 -2.019,1.107 l -2.985,5.869 c -0.291,0.57 -0.4,1.08 -0.33,1.533 0.07,0.453 0.314,0.786 0.731,0.998 0.445,0.229 0.986,0.075 1.627,-0.453 0.598,-0.49 1.085,-0.828 1.461,-1.015 0.375,-0.186 0.828,-0.321 1.354,-0.403 0.851,-0.109 1.87,-0.037 3.059,0.219 z"
           style="fill:none;stroke:#ffffff;stroke-width:1;stroke-linecap:butt;stroke-linejoin:miter;stroke-miterlimit:4;stroke-dasharray:none;stroke-opacity:1"
           id="path21504"
           inkscape:connector-curvature="0" /><path
           d="m 144.239,213.35 1.796,3.228 6.498,1.551 c 0.547,0.137 1.176,0.482 1.886,1.031 0.793,0.613 1.019,1.492 0.678,2.637 -0.182,0.631 -0.258,1.072 -0.225,1.328 0.031,0.256 0.196,0.5 0.497,0.732 0.368,0.286 0.743,0.381 1.123,0.284 0.25,-0.069 0.475,-0.188 0.673,-0.36 0.198,-0.174 0.493,-0.511 0.883,-1.015 l 3.922,-5.061 c 0.746,-0.965 0.738,-1.742 -0.029,-2.336 -0.272,-0.213 -0.534,-0.31 -0.784,-0.297 -0.252,0.014 -0.603,0.143 -1.053,0.387 -0.819,0.437 -1.49,0.684 -2.014,0.738 -0.756,0.071 -1.517,0.028 -2.289,-0.133 l -1.41,-0.337 z m -2.555,-0.725 -8.94,-6.924 c -0.533,-0.412 -0.836,-0.81 -0.911,-1.197 -0.051,-0.215 -0.058,-0.385 -0.016,-0.506 0.039,-0.121 0.198,-0.504 0.475,-1.144 0.357,-0.772 0.235,-1.391 -0.366,-1.858 -0.398,-0.305 -0.84,-0.353 -1.331,-0.144 -0.305,0.113 -0.702,0.486 -1.189,1.113 l -0.541,0.697 -7.093,9.156 -0.522,0.674 c -0.473,0.613 -0.722,1.104 -0.749,1.477 -0.056,0.523 0.095,0.922 0.45,1.197 0.603,0.465 1.23,0.43 1.886,-0.105 0.548,-0.424 0.876,-0.672 0.983,-0.743 0.11,-0.068 0.268,-0.095 0.479,-0.086 0.39,-0.025 0.85,0.172 1.385,0.584 l 6.93,5.368 9.33,16.521 c 0.348,0.619 0.487,1.221 0.41,1.795 -0.053,0.551 -0.051,0.93 0.004,1.139 0.059,0.209 0.209,0.406 0.457,0.597 0.71,0.549 1.47,0.303 2.281,-0.746 l 7.784,-10.049 c 0.412,-0.535 0.638,-0.951 0.675,-1.253 0.047,-0.512 -0.108,-0.907 -0.463,-1.18 -0.437,-0.338 -0.935,-0.403 -1.49,-0.192 l -0.832,0.313 c -0.334,0.117 -0.648,0.062 -0.949,-0.172 -0.343,-0.264 -0.617,-0.6 -0.828,-1.004 z"
           style="fill:none;stroke:#ffffff;stroke-width:1;stroke-linecap:butt;stroke-linejoin:miter;stroke-miterlimit:4;stroke-dasharray:none;stroke-opacity:1"
           id="path21506"
           inkscape:connector-curvature="0" /><path
           d="m 193.028,166.492 0.419,5.373 4.122,5.877 c 0.832,1.188 1.297,2.219 1.391,3.092 0.096,0.871 -0.136,1.842 -0.695,2.906 -0.198,0.352 -0.295,0.647 -0.295,0.887 0,0.244 0.091,0.492 0.268,0.746 0.268,0.381 0.589,0.574 0.958,0.578 0.371,0.004 0.834,-0.187 1.383,-0.574 l 5.303,-3.717 c 0.722,-0.508 1.117,-0.955 1.185,-1.338 0.08,-0.396 0.014,-0.748 -0.205,-1.058 -0.208,-0.299 -0.431,-0.473 -0.671,-0.528 -0.237,-0.054 -0.701,-0.031 -1.389,0.073 -1.017,0.144 -1.996,-0.045 -2.933,-0.571 -0.675,-0.388 -1.36,-1.08 -2.054,-2.07 z m 0.078,24.125 -2.46,-27.523 -6.562,-9.36 -5.794,4.065 2.991,34.939 c 0.064,0.756 0.072,1.311 0.023,1.662 -0.05,0.35 -0.195,0.684 -0.438,1.002 l -0.598,0.864 c -0.162,0.218 -0.244,0.466 -0.242,0.738 0.002,0.273 0.082,0.523 0.242,0.75 0.167,0.242 0.387,0.42 0.66,0.535 0.27,0.115 0.543,0.141 0.817,0.074 0.31,-0.07 1,-0.478 2.065,-1.226 z m -14.11,-1.209 -0.374,-5.31 -7.978,-11.377 c -0.693,-0.991 -1.098,-1.918 -1.211,-2.789 -0.114,-0.869 0.045,-1.764 0.481,-2.68 l 0.383,-0.809 c 0.219,-0.468 0.18,-0.918 -0.117,-1.343 -0.229,-0.323 -0.552,-0.496 -0.971,-0.522 -0.355,-0.025 -0.885,0.211 -1.595,0.709 l -4.898,3.434 c -1.278,0.896 -1.658,1.711 -1.142,2.449 0.177,0.254 0.386,0.408 0.623,0.461 0.24,0.057 0.674,0.053 1.303,-0.008 1.876,-0.197 3.511,0.693 4.898,2.674 z"
           style="fill:none;stroke:#ffffff;stroke-width:1;stroke-linecap:butt;stroke-linejoin:miter;stroke-miterlimit:4;stroke-dasharray:none;stroke-opacity:1"
           id="path21508"
           inkscape:connector-curvature="0" /><path
           d="m 225.847,169.822 1.127,2.561 c 1.672,-0.83 3.082,-1.863 4.225,-3.104 1.144,-1.24 2.064,-2.72 2.762,-4.443 1.841,-4.566 1.532,-9.652 -0.933,-15.254 -2.413,-5.49 -5.838,-9.094 -10.272,-10.807 -3.414,-1.33 -6.943,-1.355 -10.589,-0.074 l 1.148,2.612 c 0.45,-0.084 0.822,-0.102 1.115,-0.051 0.293,0.051 0.596,0.177 0.91,0.379 0.708,0.463 1.352,1.351 1.93,2.666 l 9.33,21.218 c 0.367,0.838 0.518,1.565 0.452,2.18 -0.043,0.416 -0.151,0.775 -0.328,1.078 -0.174,0.303 -0.467,0.651 -0.877,1.039 z m -1.949,0.856 c -0.935,0.07 -1.676,-0.067 -2.223,-0.41 -0.549,-0.344 -1.032,-0.989 -1.449,-1.94 l -9.33,-21.221 c -0.613,-1.394 -0.855,-2.459 -0.723,-3.195 0.091,-0.607 0.49,-1.187 1.193,-1.742 l -1.147,-2.611 c -3.394,1.83 -5.76,4.447 -7.099,7.849 -1.74,4.428 -1.404,9.389 1.009,14.879 1.212,2.754 2.713,5.063 4.506,6.928 1.794,1.863 3.832,3.221 6.115,4.068 1.74,0.651 3.453,0.975 5.133,0.971 1.682,-0.002 3.396,-0.342 5.142,-1.014 z"
           style="fill:none;stroke:#ffffff;stroke-width:1;stroke-linecap:butt;stroke-linejoin:miter;stroke-miterlimit:4;stroke-dasharray:none;stroke-opacity:1"
           id="path21510"
           inkscape:connector-curvature="0" /><path
           d="m 293.339,156.059 -1.217,-10.526 c -0.059,-0.502 -0.248,-0.894 -0.566,-1.176 -0.32,-0.281 -0.704,-0.394 -1.15,-0.341 -0.429,0.048 -0.768,0.232 -1.017,0.548 -0.252,0.315 -0.39,0.729 -0.42,1.239 l -0.076,1.603 c -0.07,1.631 -0.409,3.074 -1.012,4.33 -0.379,0.778 -0.937,1.442 -1.672,1.998 l 0.36,3.108 z m -8.917,1.031 -3.499,-30.244 c -0.076,-0.672 -0.004,-1.166 0.221,-1.489 0.118,-0.185 0.235,-0.31 0.351,-0.367 0.116,-0.056 0.5,-0.209 1.152,-0.459 0.805,-0.285 1.162,-0.804 1.075,-1.56 -0.052,-0.446 -0.318,-0.782 -0.797,-1.006 -0.35,-0.166 -0.914,-0.205 -1.69,-0.117 l -0.851,0.099 -11.481,1.326 -0.85,0.098 c -0.756,0.088 -1.313,0.27 -1.672,0.547 -0.361,0.277 -0.514,0.646 -0.46,1.111 0.086,0.754 0.555,1.18 1.401,1.274 0.69,0.093 1.098,0.156 1.222,0.185 0.126,0.03 0.258,0.121 0.399,0.282 0.291,0.261 0.476,0.728 0.553,1.396 l 3.499,30.246 z m -20.278,2.344 6.77,-0.782 -0.359,-3.107 c -0.863,-0.371 -1.556,-0.893 -2.087,-1.565 -0.873,-1.084 -1.531,-2.412 -1.973,-3.984 l -0.44,-1.543 c -0.142,-0.49 -0.374,-0.861 -0.69,-1.111 -0.315,-0.252 -0.689,-0.352 -1.116,-0.303 -0.448,0.051 -0.795,0.252 -1.041,0.596 -0.248,0.345 -0.34,0.771 -0.282,1.275 z"
           style="fill:none;stroke:#ffffff;stroke-width:1;stroke-linecap:butt;stroke-linejoin:miter;stroke-miterlimit:4;stroke-dasharray:none;stroke-opacity:1"
           id="path21512"
           inkscape:connector-curvature="0" /><path
           d="m 314.98,154.975 -0.198,2.791 c 1.87,0.047 3.6,-0.211 5.192,-0.778 1.591,-0.56 3.096,-1.443 4.516,-2.642 3.761,-3.182 5.857,-7.826 6.289,-13.932 0.422,-5.982 -0.93,-10.766 -4.057,-14.35 -2.408,-2.767 -5.522,-4.435 -9.347,-5 l -0.202,2.846 c 0.443,0.133 0.786,0.293 1.025,0.475 0.24,0.181 0.452,0.435 0.638,0.76 0.42,0.74 0.578,1.826 0.477,3.257 l -1.632,23.125 c -0.067,0.912 -0.273,1.625 -0.621,2.137 -0.234,0.348 -0.502,0.615 -0.802,0.803 -0.301,0.187 -0.727,0.355 -1.278,0.508 z m -2.113,-0.151 c -0.859,-0.371 -1.454,-0.838 -1.777,-1.398 -0.324,-0.563 -0.452,-1.36 -0.378,-2.393 l 1.633,-23.123 c 0.107,-1.517 0.389,-2.572 0.848,-3.164 0.364,-0.494 0.987,-0.822 1.866,-0.984 l 0.202,-2.848 c -3.85,0.041 -7.158,1.256 -9.924,3.643 -3.601,3.107 -5.61,7.652 -6.032,13.634 -0.212,3.002 0.04,5.745 0.756,8.231 0.718,2.484 1.886,4.635 3.508,6.447 1.237,1.387 2.599,2.471 4.085,3.25 1.489,0.783 3.159,1.281 5.015,1.498 z"
           style="fill:none;stroke:#ffffff;stroke-width:1;stroke-linecap:butt;stroke-linejoin:miter;stroke-miterlimit:4;stroke-dasharray:none;stroke-opacity:1"
           id="path21514"
           inkscape:connector-curvature="0" /><path
           d="m 381.323,155.109 c 1.57,0.368 2.806,0.575 3.71,0.62 0.906,0.046 1.773,-0.034 2.601,-0.241 0.873,-0.228 1.631,-0.613 2.268,-1.158 0.638,-0.545 1.111,-1.203 1.42,-1.975 l 1.996,-4.98 c 0.207,-0.514 0.477,-0.703 0.816,-0.566 0.128,0.05 0.222,0.129 0.281,0.238 0.06,0.107 0.128,0.297 0.206,0.574 0.182,0.707 0.481,1.147 0.9,1.313 0.273,0.111 0.605,0.074 0.993,-0.106 0.39,-0.18 0.642,-0.414 0.759,-0.703 0.201,-0.5 0.205,-1.201 0.019,-2.107 -0.188,-0.907 -0.522,-1.782 -1.003,-2.629 -0.446,-0.795 -1.008,-1.463 -1.686,-2.006 -0.679,-0.541 -1.54,-1.022 -2.584,-1.442 -2.121,-0.849 -4.02,-0.908 -5.696,-0.168 -1.677,0.735 -2.948,2.188 -3.816,4.358 l -1.621,4.043 c -0.36,0.898 -0.578,1.416 -0.651,1.556 -0.336,0.61 -0.782,1.075 -1.335,1.391 -0.685,0.377 -1.478,0.442 -2.378,0.193 l -1.032,2.577 c 0.81,0.472 1.333,0.943 1.572,1.408 0.202,0.418 0.288,0.834 0.259,1.252 -0.027,0.416 -0.187,0.986 -0.476,1.709 l -2.548,6.355 c -0.404,1.01 -0.901,1.686 -1.494,2.026 -0.593,0.338 -1.46,0.447 -2.603,0.326 l -1.069,2.67 0.625,0.25 c 1.783,0.715 3.325,1.259 4.63,1.633 1.934,0.57 3.84,0.628 5.718,0.171 2.702,-0.646 4.603,-2.349 5.708,-5.105 0.906,-2.258 0.94,-4.393 0.104,-6.4 -0.351,-0.848 -0.846,-1.623 -1.485,-2.327 -0.643,-0.701 -1.679,-1.619 -3.108,-2.75 z m -14.097,13.764 11.321,-28.256 c 0.252,-0.625 0.552,-1.025 0.9,-1.203 0.193,-0.109 0.353,-0.162 0.481,-0.156 0.129,0.004 0.535,0.051 1.222,0.138 0.838,0.133 1.4,-0.156 1.683,-0.861 0.167,-0.418 0.093,-0.836 -0.22,-1.26 -0.226,-0.314 -0.691,-0.611 -1.392,-0.894 l -0.816,-0.326 -10.717,-4.295 -0.625,-0.25 c -0.575,-0.229 -1.062,-0.299 -1.458,-0.209 -0.398,0.094 -0.677,0.34 -0.838,0.742 -0.264,0.658 -0.118,1.219 0.437,1.684 0.457,0.386 0.721,0.619 0.793,0.693 0.07,0.076 0.126,0.205 0.165,0.387 0.089,0.334 0.021,0.783 -0.204,1.343 l -9.65,24.08 c -0.223,0.561 -0.483,0.93 -0.779,1.11 -0.152,0.105 -0.282,0.16 -0.385,0.164 -0.104,0.006 -0.455,-0.01 -1.053,-0.045 -0.723,-0.047 -1.214,0.256 -1.478,0.912 -0.159,0.4 -0.128,0.772 0.097,1.111 0.225,0.34 0.623,0.627 1.197,0.856 l 0.625,0.25 z"
           style="fill:none;stroke:#ffffff;stroke-width:1;stroke-linecap:butt;stroke-linejoin:miter;stroke-miterlimit:4;stroke-dasharray:none;stroke-opacity:1"
           id="path21516"
           inkscape:connector-curvature="0" /><path
           d="m 400.812,178.07 4.043,-3.763 5.328,-16.516 c 0.149,-0.48 0.337,-0.893 0.563,-1.24 0.597,-0.91 1.447,-1.283 2.552,-1.119 l 0.982,0.148 c 0.616,0.094 1.09,-0.111 1.42,-0.619 0.473,-0.723 0.187,-1.426 -0.862,-2.113 l -5.51,-3.604 c -0.534,-0.351 -1.032,-0.517 -1.488,-0.496 -0.458,0.022 -0.816,0.227 -1.071,0.617 -0.275,0.42 -0.182,0.975 0.274,1.666 0.424,0.649 0.706,1.168 0.851,1.563 0.144,0.394 0.229,0.857 0.253,1.388 0.017,0.858 -0.167,1.864 -0.548,3.016 z m -2.106,6.485 8.742,5.72 22.701,-21.525 c 0.41,-0.371 0.802,-0.684 1.173,-0.936 0.31,-0.189 0.745,-0.224 1.309,-0.105 0.479,0.09 0.845,0.1 1.092,0.035 0.25,-0.062 0.465,-0.232 0.642,-0.508 0.493,-0.75 0.171,-1.498 -0.962,-2.238 l -10.823,-7.082 c -0.439,-0.287 -0.858,-0.412 -1.259,-0.375 -0.4,0.037 -0.712,0.23 -0.939,0.578 -0.19,0.289 -0.273,0.543 -0.252,0.764 0.021,0.221 0.166,0.574 0.433,1.056 0.199,0.338 0.298,0.631 0.302,0.881 0.002,0.248 -0.083,0.502 -0.252,0.764 -0.161,0.246 -0.324,0.449 -0.491,0.607 l -2.752,2.694 -6.052,-3.963 -1.1,2.961 4.859,3.178 -15.522,15.015 z"
           style="fill:none;stroke:#ffffff;stroke-width:1;stroke-linecap:butt;stroke-linejoin:miter;stroke-miterlimit:4;stroke-dasharray:none;stroke-opacity:1"
           id="path21518"
           inkscape:connector-curvature="0" /><path
           d="m 456.076,184.246 -2.192,2.283 c 0.9,1.01 1.568,2.36 2.007,4.051 0.224,0.914 0.272,1.887 0.139,2.924 -0.134,1.035 -0.435,2.025 -0.908,2.965 -0.258,0.519 -0.384,0.943 -0.378,1.273 0.007,0.33 0.148,0.627 0.422,0.891 0.299,0.287 0.656,0.416 1.071,0.383 0.415,-0.034 0.784,-0.219 1.109,-0.557 0.538,-0.561 0.978,-1.447 1.314,-2.66 0.337,-1.211 0.493,-2.477 0.467,-3.797 -0.031,-1.615 -0.289,-3.039 -0.773,-4.27 -0.482,-1.232 -1.242,-2.394 -2.278,-3.486 z m -23.315,24.203 -2.165,2.254 c 0.704,0.486 1.3,0.858 1.783,1.11 0.487,0.255 1.399,0.681 2.735,1.283 0.847,0.386 1.377,0.681 1.587,0.886 0.362,0.348 0.48,0.772 0.354,1.276 l -0.191,0.683 c -0.137,0.442 -0.002,0.864 0.407,1.256 0.336,0.323 0.694,0.471 1.068,0.442 0.375,-0.032 0.751,-0.243 1.129,-0.637 l 7.445,-7.748 c 0.479,-0.5 0.716,-0.969 0.708,-1.408 -0.008,-0.44 -0.157,-0.797 -0.441,-1.075 -0.3,-0.283 -0.632,-0.417 -0.997,-0.4 -0.366,0.022 -0.814,0.195 -1.344,0.522 -1.204,0.73 -2.201,1.255 -2.985,1.578 -1.67,0.668 -3.2,1.039 -4.589,1.115 -0.937,0.055 -1.765,-0.006 -2.481,-0.18 -0.717,-0.176 -1.391,-0.494 -2.023,-0.957 z m -3.668,0.846 2.163,-2.254 c -0.636,-0.828 -0.879,-1.684 -0.735,-2.568 0.149,-0.883 0.698,-1.823 1.652,-2.815 l 14.835,-15.441 0.772,-0.805 c 0.275,-0.287 0.625,-0.533 1.051,-0.734 0.425,-0.203 0.84,-0.326 1.244,-0.367 0.443,-0.057 0.826,-0.03 1.156,0.084 0.329,0.111 0.707,0.335 1.133,0.675 l 2.193,-2.283 c -2.421,-2.326 -5.127,-3.719 -8.122,-4.174 -2.637,-0.402 -5.256,-0.05 -7.855,1.057 -2.601,1.107 -5.132,2.943 -7.599,5.512 -1.805,1.877 -3.23,3.881 -4.274,6.004 -1.045,2.125 -1.647,4.255 -1.811,6.398 -0.161,2.168 0.102,4.287 0.787,6.361 0.685,2.071 1.67,3.723 2.956,4.959 z"
           style="fill:none;stroke:#ffffff;stroke-width:1;stroke-linecap:butt;stroke-linejoin:miter;stroke-miterlimit:4;stroke-dasharray:none;stroke-opacity:1"
           id="path21520"
           inkscape:connector-curvature="0" /><path
           d="m 480.558,213.928 -6.949,-9.225 -0.405,-0.537 c -0.375,-0.498 -0.757,-0.812 -1.145,-0.941 -0.39,-0.129 -0.757,-0.065 -1.102,0.195 -0.566,0.428 -0.729,0.982 -0.494,1.672 0.192,0.57 0.3,0.904 0.322,1.008 0.023,0.103 0.004,0.242 -0.057,0.416 -0.097,0.336 -0.386,0.681 -0.87,1.045 l -20.728,15.615 c -0.483,0.365 -0.898,0.547 -1.244,0.547 -0.187,0.013 -0.326,-0.008 -0.417,-0.057 -0.094,-0.051 -0.387,-0.246 -0.882,-0.586 -0.597,-0.418 -1.179,-0.414 -1.744,0.014 -0.347,0.261 -0.512,0.595 -0.495,1.008 0.016,0.408 0.212,0.863 0.586,1.359 l 0.404,0.539 6.948,9.223 0.406,0.539 c 0.374,0.498 0.758,0.808 1.147,0.939 0.39,0.129 0.759,0.065 1.103,-0.199 0.569,-0.426 0.734,-0.984 0.496,-1.672 -0.19,-0.57 -0.297,-0.906 -0.32,-1.008 -0.022,-0.101 -0.004,-0.242 0.058,-0.418 0.097,-0.334 0.388,-0.681 0.871,-1.047 l 20.728,-15.615 c 0.484,-0.363 0.899,-0.545 1.244,-0.545 0.185,-0.011 0.326,0.008 0.417,0.059 0.092,0.049 0.385,0.244 0.88,0.588 0.595,0.416 1.177,0.412 1.743,-0.016 0.344,-0.26 0.507,-0.594 0.491,-1.002 -0.017,-0.412 -0.212,-0.865 -0.586,-1.363 z"
           style="fill:none;stroke:#ffffff;stroke-width:1;stroke-linecap:butt;stroke-linejoin:miter;stroke-miterlimit:4;stroke-dasharray:none;stroke-opacity:1"
           id="path21522"
           inkscape:connector-curvature="0" /><path
           d="m 492.901,238.105 2.614,-1.378 c -0.663,-1.256 -1.755,-2.45 -3.279,-3.582 -0.559,-0.428 -0.934,-0.729 -1.125,-0.903 -0.189,-0.174 -0.336,-0.359 -0.441,-0.558 -0.163,-0.307 -0.233,-0.563 -0.213,-0.77 0.021,-0.205 0.145,-0.582 0.369,-1.131 0.196,-0.455 0.209,-0.845 0.04,-1.166 -0.45,-0.855 -1.338,-0.937 -2.659,-0.238 l -8.344,4.402 c -0.428,0.227 -0.728,0.541 -0.899,0.944 -0.17,0.402 -0.165,0.791 0.012,1.166 0.163,0.343 0.398,0.556 0.706,0.64 0.307,0.082 0.757,0.055 1.35,-0.082 1.5,-0.342 2.999,-0.482 4.498,-0.422 1.496,0.059 2.879,0.325 4.143,0.793 1.3,0.465 2.378,1.227 3.228,2.285 z m -25.708,17.407 -2.526,1.334 c 0.545,0.884 1.086,1.617 1.616,2.195 0.535,0.58 1.39,1.354 2.567,2.314 0.284,0.243 0.478,0.461 0.584,0.661 0.154,0.291 0.167,0.558 0.037,0.8 l -0.408,0.862 c -0.209,0.426 -0.224,0.812 -0.039,1.164 0.219,0.412 0.529,0.637 0.929,0.668 0.401,0.033 0.923,-0.119 1.569,-0.459 l 7.58,-4 c 0.446,-0.237 0.743,-0.555 0.894,-0.957 0.149,-0.401 0.119,-0.801 -0.091,-1.199 -0.161,-0.305 -0.409,-0.538 -0.748,-0.692 -0.193,-0.072 -0.4,-0.105 -0.623,-0.094 -0.219,0.008 -0.557,0.082 -1.012,0.225 -0.837,0.227 -1.764,0.344 -2.78,0.354 -1.013,0.005 -1.979,-0.1 -2.9,-0.319 -1.821,-0.449 -3.37,-1.4 -4.649,-2.857 z m -3.599,-0.424 2.642,-1.393 c -0.24,-1.084 -0.219,-2.013 0.062,-2.799 0.28,-0.781 0.819,-1.382 1.614,-1.802 0.764,-0.403 1.542,-0.549 2.332,-0.44 0.793,0.112 1.695,0.496 2.709,1.157 0.69,0.459 2.13,1.556 4.318,3.296 1.323,1.063 2.425,1.848 3.307,2.352 0.881,0.5 1.86,0.898 2.933,1.193 2.85,0.807 5.582,0.52 8.197,-0.859 1.972,-1.041 3.518,-2.484 4.636,-4.326 1.119,-1.842 1.693,-3.867 1.721,-6.074 0.004,-1.176 -0.14,-2.385 -0.435,-3.629 -0.295,-1.244 -0.692,-2.34 -1.193,-3.287 l -2.611,1.378 c 0.38,1.5 0.44,2.696 0.177,3.59 -0.262,0.891 -0.883,1.596 -1.861,2.112 -1.025,0.541 -2.17,0.556 -3.433,0.05 -0.828,-0.345 -2.07,-1.177 -3.724,-2.498 -1.819,-1.445 -3.089,-2.423 -3.808,-2.935 -0.719,-0.512 -1.485,-0.963 -2.298,-1.356 -3.566,-1.795 -7.058,-1.793 -10.468,0.004 -1.742,0.922 -3.162,2.129 -4.258,3.627 -1.096,1.496 -1.757,3.125 -1.981,4.887 -0.31,2.449 0.163,5.035 1.422,7.752 z"
           style="fill:none;stroke:#ffffff;stroke-width:1;stroke-linecap:butt;stroke-linejoin:miter;stroke-miterlimit:4;stroke-dasharray:none;stroke-opacity:1"
           id="path21524"
           inkscape:connector-curvature="0" /><path
           d="m 485.816,272.188 8.29,0.445 7.49,-2.195 c 0.763,-0.223 1.32,-0.352 1.668,-0.393 0.35,-0.039 0.753,-0.018 1.209,0.066 0.832,0.137 1.521,0.459 2.066,0.969 l 0.869,0.752 c 0.566,0.52 1.081,0.711 1.546,0.578 0.847,-0.248 1.086,-1 0.719,-2.256 l -1.831,-6.25 c -0.365,-1.25 -0.962,-1.754 -1.792,-1.509 -0.264,0.078 -0.454,0.189 -0.562,0.339 -0.111,0.149 -0.21,0.409 -0.299,0.778 -0.456,2.136 -1.912,3.566 -4.366,4.283 z m -5.927,22.138 3.238,11.065 0.196,0.673 c 0.365,1.246 0.979,1.744 1.839,1.492 0.68,-0.198 1.03,-0.663 1.051,-1.389 0.02,-0.603 0.039,-0.956 0.054,-1.059 0.014,-0.104 0.083,-0.225 0.202,-0.369 0.207,-0.278 0.598,-0.5 1.178,-0.671 l 24.901,-7.289 c 0.582,-0.172 1.034,-0.193 1.358,-0.072 0.178,0.055 0.302,0.121 0.369,0.201 0.069,0.082 0.275,0.365 0.618,0.862 0.409,0.603 0.956,0.804 1.634,0.605 0.864,-0.254 1.114,-1.004 0.748,-2.25 l -0.196,-0.672 -3.247,-11.088 -0.241,-0.826 c -0.215,-0.732 -0.489,-1.252 -0.822,-1.562 -0.334,-0.307 -0.725,-0.399 -1.172,-0.266 -0.732,0.215 -1.07,0.746 -1.018,1.6 0.025,0.697 0.032,1.109 0.025,1.24 -0.009,0.129 -0.069,0.273 -0.184,0.433 -0.226,0.336 -0.663,0.598 -1.309,0.789 z m -2.68,-9.146 15.38,0.82 -6.902,4.371 8.258,-2.418 17.602,-11.392 -0.386,-1.319 -31.456,-1.279 c -1.059,-0.051 -1.807,-0.209 -2.246,-0.479 -0.278,-0.152 -0.545,-0.478 -0.801,-0.98 -0.547,-1.012 -1.22,-1.399 -2.014,-1.168 -0.432,0.127 -0.723,0.379 -0.873,0.758 -0.15,0.377 -0.141,0.857 0.03,1.441 z"
           style="fill:none;stroke:#ffffff;stroke-width:1;stroke-linecap:butt;stroke-linejoin:miter;stroke-miterlimit:4;stroke-dasharray:none;stroke-opacity:1"
           id="path21526"
           inkscape:connector-curvature="0" /><path
           d="m 490.631,365.252 c -6.259,-0.132 -11.706,-4.06 -13.68,-10.713 -3.336,-17.288 15.888,-24.562 26.476,-34.893 9.191,11.956 27.189,15.048 26.289,32.731 -0.78,3.946 -2.983,7.156 -5.939,9.414 -3.961,3.028 -9.474,4.07 -14.189,2.26 -2.521,-0.892 -4.816,-2.436 -6.533,-4.488 -2.981,3.679 -7.696,5.792 -12.424,5.687 z"
           style="fill:#ffffff;fill-opacity:1;fill-rule:nonzero;stroke:none"
           id="path21528"
           inkscape:connector-curvature="0" /><path
           d="m 83.438,361.186 c -6.258,-0.128 -11.706,-4.059 -13.679,-10.709 -3.336,-17.29 15.888,-24.564 26.475,-34.897 9.192,11.96 27.19,15.047 26.29,32.733 -0.78,3.943 -2.983,7.155 -5.939,9.413 -3.961,3.03 -9.474,4.07 -14.189,2.261 -2.521,-0.89 -4.816,-2.437 -6.533,-4.487 -2.981,3.675 -7.696,5.789 -12.425,5.686"
           style="fill:#ffffff;fill-opacity:1;fill-rule:nonzero;stroke:none"
           id="path21530"
           inkscape:connector-curvature="0" /><g
           id="g21532"><g
             id="g21534" /><g
             id="g21544"><g
               clip-path="url(#clipPath21538)"
               id="g21542"
               style="opacity:0.99899298"><path
                 d="m 198.958,398.674 c 14.648,-1.083 29.295,-2.166 43.945,-3.25 2.446,0.985 4.888,1.973 7.334,2.956 5.396,1.123 10.895,2.795 16.291,3.92 4.978,1.952 9.148,4.547 13.867,4.633 5.41,0.094 12.948,-1.635 18.081,-5.191 8.801,-19.143 17.605,-38.285 26.411,-57.429 8.081,-11.456 16.169,-22.908 24.254,-34.36 3.208,-6.432 1.11,-15.361 -2.213,-18.896 -2.853,-3.032 -11.46,-3.83 -16.309,-0.797 -0.459,-4.739 -2.442,-10.061 -5.361,-12.662 -3.583,-1.539 -9.594,-2.366 -13.462,-0.735 0.404,-4.136 -2.403,-9.304 -5.395,-11.24 -3.093,-1.994 -7.036,-2.91 -12.863,-0.555 -0.721,-1.951 -1.152,-4.545 -2.717,-5.56 -2.919,-1.879 -6.971,-2.178 -10.73,-3.117 -44.898,34.709 -62.703,38.244 -86.609,47.396 1.249,27.856 4.226,67.035 5.47,94.888 z"
                 style="fill:#704521;fill-opacity:1;fill-rule:nonzero;stroke:none"
                 id="path21540"
                 inkscape:connector-curvature="0" /></g></g></g><path
           d="m 226.99,304.173 c -2.421,-1.862 -5.672,-7.487 -7.125,-10.771 -0.221,-0.5 1.537,0.123 1.942,-0.343 1.261,-2.571 1.82,-3.967 4.056,-6.536 1.113,-1.275 2.341,-2.468 3.565,-3.64 1.693,-1.613 3.346,-3.285 5.181,-4.729 2.568,-2.013 4.655,-4.865 8.026,-5.633 4.303,-5.322 6.946,-7.617 12.624,-10.257 0.679,-3.371 1.922,-7.028 4.911,-8.491 2.721,-1.335 7.728,-1.095 11.093,-0.765 3.067,0.308 7.375,2.937 9.163,4.195 2.08,1.459 1.99,4.617 1.308,7.387 -0.452,1.867 -3.315,3.613 -5.334,4.955 1.478,1.295 3.324,2.082 3.64,3.568 0.704,3.348 0.283,6.158 -1.753,9.334 -2.202,3.424 -7.212,5.633 -10.934,3.946 0.622,2.302 1.651,5.593 -0.111,8.439 -2.673,4.325 -6.211,6.513 -11.157,7.19 -8.05,1.106 -10.447,-2.469 -15.077,-4.749 -3.255,-1.597 -8.583,-3.033 -10.643,-2.32 -0.33,1.652 0.279,3.879 -0.751,5.946 -0.642,1.288 -1.295,2.219 -2.624,3.274"
           style="fill:#f5d6b7;fill-opacity:1;fill-rule:nonzero;stroke:none"
           id="path21546"
           inkscape:connector-curvature="0" /><path
           d="m 182.837,411.744 c 19.932,-5.426 40.052,-10.251 59.793,-16.271 9.203,-2.806 -0.084,-48.324 -6.551,-70.593 -5.157,-17.741 -17.513,-34.243 -28.331,-49.429 -3.778,-5.297 -11.473,-13 -15.506,-12.283 -4.124,0.73 -22.153,9.41 -33.234,14.113 z"
           style="fill:#bdc0c8;fill-opacity:1;fill-rule:nonzero;stroke:none"
           id="path21548"
           inkscape:connector-curvature="0" /><path
           d="m 350.235,389.733 -3.495,-0.516 -2.055,-3.604 7.719,-79.644 2.913,-2.785 1.827,-0.892 2.396,0.708 3.823,10.385 1.783,26.061 -2.257,30.463 -7.347,17.75 z"
           style="fill:#496478;fill-opacity:1;fill-rule:nonzero;stroke:none"
           id="path21550"
           inkscape:connector-curvature="0" /><path
           d="m 353.604,386.817 c -3.441,-0.242 -10.155,-2.003 -13.391,-0.981 -3.531,1.119 -10.022,4.372 -18.034,7.223 -8.164,2.902 -11.984,6.606 -19.52,8.26 -8.731,1.917 -12.203,-3.26 -17.387,-6.879 -9.148,-4.148 -22.33,-7.46 -25.501,-11.081 -3.445,-3.926 -9.383,-13.46 -10.188,-17.48 -3.07,-3.992 -7.299,-7.467 -8.472,-12.31 -1.713,-7.08 7.258,-9.571 11.562,-8.653 3.154,0.665 5.383,2.635 8.075,3.955 7.222,1.362 13.271,8.546 19.343,14.721 5.303,0.729 8.503,2.03 12.716,4.554 1.624,-2.386 4.663,-2.419 7.652,-1.639 -1.208,-4.632 19.991,-18.652 24.929,-22.57 7.804,-11.794 15.649,-22.189 24.069,-33.892 0.171,-1.166 0.953,-3.44 1.12,-4.602 1.611,0.563 4.104,0.6 5.421,1.591 1.738,1.304 2.882,3.46 4.324,5.187 5.757,0.493 11.521,0.985 17.278,1.476 -2.977,25.864 -5.959,51.728 -8.934,77.593 -5.134,-1.739 -9.929,-2.735 -15.062,-4.473"
           style="fill:#f5d6b7;fill-opacity:1;fill-rule:nonzero;stroke:none"
           id="path21552"
           inkscape:connector-curvature="0" /><path
           d="m 343.586,385.807 c 0,1.677 2.226,4.567 5.471,5.268 30.983,6.417 58.531,7.022 87.797,10.533 l -13.481,-96.873 c -31.423,0.265 -45.01,-1.231 -65.872,-3.64 -1.144,0.23 -3.907,2.649 -5.147,4.597 1.65,-0.857 4.131,-2.699 4.936,-2.571 1.731,0.267 2.967,5.694 3.256,8.78 1.25,13.092 2.675,26.682 1.372,39.744 -1.181,11.86 -1.446,27.792 -8.822,35.029 -1.066,1.044 -3.031,2.044 -4.488,1.881 -1.147,-0.131 -2.516,-1.256 -3.323,-2.764 z"
           style="fill:#bdbcbc;fill-opacity:1;fill-rule:nonzero;stroke:none"
           id="path21554"
           inkscape:connector-curvature="0" /></g></g></g></svg>